<?xml version="1.0" encoding="UTF-8" standalone="no"?>
<!DOCTYPE svg PUBLIC "-//W3C//DTD SVG 1.1//EN" "http://www.w3.org/Graphics/SVG/1.1/DTD/svg11.dtd">
<svg width="100%" height="100%" viewBox="0 0 342 535" version="1.1" xmlns="http://www.w3.org/2000/svg" xmlns:xlink="http://www.w3.org/1999/xlink" xml:space="preserve" xmlns:serif="http://www.serif.com/" style="fill-rule:evenodd;clip-rule:evenodd;stroke-linejoin:round;stroke-miterlimit:2;">
    <g transform="matrix(1,0,0,1,-1086.45,-1069.14)">
        <path d="M1406.01,1584.7C1406.01,1588.28 1405.3,1591.52 1403.88,1594.42C1402.47,1597.32 1400.31,1599.64 1397.4,1601.35C1394.52,1603.06 1390.94,1603.92 1386.67,1603.93L1386.57,1603.93C1380.81,1603.93 1376.14,1602.57 1372.56,1599.86C1368.99,1597.14 1366.94,1593.46 1366.43,1588.81L1378.21,1588.81L1378.22,1588.88C1378.61,1590.34 1379.48,1591.48 1380.85,1592.33C1382.25,1593.19 1383.97,1593.62 1386.01,1593.62L1386.07,1593.62C1388.5,1593.61 1390.45,1592.9 1391.9,1591.49C1393.36,1590.08 1394.09,1587.81 1394.09,1584.7L1394.09,1579.19C1392.93,1581.01 1391.33,1582.48 1389.29,1583.62C1387.27,1584.74 1384.92,1585.31 1382.24,1585.33L1382.11,1585.33C1378.9,1585.33 1376,1584.5 1373.4,1582.85C1370.8,1581.2 1368.74,1578.86 1367.23,1575.82C1365.72,1572.77 1364.97,1569.25 1364.97,1565.26C1364.97,1561.26 1365.72,1557.76 1367.23,1554.74C1368.74,1551.72 1370.8,1549.39 1373.4,1547.77C1376,1546.14 1378.9,1545.33 1382.11,1545.33L1382.24,1545.33C1384.92,1545.35 1387.29,1545.9 1389.32,1547C1391.39,1548.12 1392.98,1549.58 1394.09,1551.39L1394.09,1545.89L1406.01,1545.89L1406.01,1584.7ZM1250.64,1545.33C1254.36,1545.34 1257.68,1546.13 1260.58,1547.7C1263.51,1549.28 1265.8,1551.53 1267.45,1554.46C1269.1,1557.38 1269.92,1560.8 1269.92,1564.7C1269.92,1565.78 1269.86,1566.9 1269.72,1568.07L1269.71,1568.19L1242.74,1568.19C1242.93,1570.6 1243.71,1572.45 1245.08,1573.73C1246.45,1575 1248.13,1575.64 1250.13,1575.64L1250.2,1575.64C1253.14,1575.62 1255.18,1574.37 1256.33,1571.88L1269.01,1571.88C1268.36,1574.43 1267.19,1576.73 1265.5,1578.78C1263.8,1580.82 1261.67,1582.42 1259.12,1583.59C1256.58,1584.74 1253.75,1585.32 1250.62,1585.33L1250.55,1585.33C1246.74,1585.33 1243.35,1584.51 1240.38,1582.89C1237.4,1581.26 1235.08,1578.94 1233.41,1575.92C1231.73,1572.9 1230.9,1569.37 1230.9,1565.33C1230.9,1561.29 1231.72,1557.76 1233.37,1554.74C1235.02,1551.72 1237.33,1549.39 1240.31,1547.77C1243.28,1546.14 1246.69,1545.33 1250.55,1545.33L1250.64,1545.33ZM1159.49,1545.33C1163.27,1545.34 1166.67,1546.16 1169.72,1547.77C1172.78,1549.39 1175.2,1551.73 1176.96,1554.77C1178.73,1557.82 1179.61,1561.33 1179.61,1565.33C1179.61,1569.32 1178.72,1572.84 1176.93,1575.89C1175.14,1578.93 1172.7,1581.26 1169.61,1582.89C1166.55,1584.5 1163.13,1585.32 1159.35,1585.33L1159.27,1585.33C1155.46,1585.33 1152.03,1584.51 1148.99,1582.89C1145.94,1581.26 1143.55,1578.94 1141.81,1575.92C1140.07,1572.9 1139.2,1569.37 1139.2,1565.33C1139.2,1561.33 1140.08,1557.82 1141.84,1554.77C1143.61,1551.73 1146.03,1549.39 1149.09,1547.77C1152.16,1546.14 1155.6,1545.33 1159.4,1545.33L1159.49,1545.33ZM1340.88,1545.33C1344.65,1545.34 1348.06,1546.16 1351.1,1547.77C1354.17,1549.39 1356.58,1551.73 1358.35,1554.77C1360.11,1557.82 1361,1561.33 1361,1565.33C1361,1569.32 1360.1,1572.84 1358.31,1575.89C1356.52,1578.93 1354.08,1581.26 1351,1582.89C1347.93,1584.5 1344.51,1585.32 1340.74,1585.33L1340.65,1585.33C1336.84,1585.33 1333.41,1584.51 1330.37,1582.89C1327.33,1581.26 1324.93,1578.94 1323.19,1575.92C1321.45,1572.9 1320.58,1569.37 1320.58,1565.33C1320.58,1561.33 1321.46,1557.82 1323.23,1554.77C1324.99,1551.73 1327.41,1549.39 1330.47,1547.77C1333.54,1546.14 1336.98,1545.33 1340.79,1545.33L1340.88,1545.33ZM1212.71,1533.2L1224.63,1533.2L1224.63,1584.77L1212.71,1584.77L1212.71,1579.19C1211.6,1581.05 1210.01,1582.54 1207.94,1583.65C1205.9,1584.75 1203.54,1585.31 1200.85,1585.33L1200.73,1585.33C1197.52,1585.33 1194.62,1584.5 1192.02,1582.85C1189.41,1581.2 1187.36,1578.86 1185.85,1575.82C1184.34,1572.77 1183.58,1569.25 1183.58,1565.26C1183.58,1561.26 1184.34,1557.76 1185.85,1554.74C1187.36,1551.72 1189.41,1549.39 1192.02,1547.77C1194.62,1546.14 1197.52,1545.33 1200.73,1545.33L1200.85,1545.33C1203.35,1545.35 1205.65,1545.88 1207.73,1546.93C1209.84,1548 1211.5,1549.44 1212.71,1551.25L1212.71,1533.2ZM1111.18,1535.3C1116.93,1535.32 1121.86,1536.85 1125.96,1539.89C1130.06,1542.94 1132.81,1547.08 1134.22,1552.31L1134.25,1552.44L1121.15,1552.44C1120.17,1550.39 1118.79,1548.84 1117,1547.77C1115.21,1546.7 1113.18,1546.17 1110.9,1546.17C1107.24,1546.17 1104.26,1547.44 1101.99,1550C1099.71,1552.55 1098.57,1555.97 1098.57,1560.24C1098.57,1564.52 1099.71,1567.93 1101.99,1570.49C1104.26,1573.04 1107.24,1574.32 1110.9,1574.32L1111.01,1574.32C1113.25,1574.3 1115.24,1573.77 1117,1572.72C1118.79,1571.65 1120.17,1570.09 1121.15,1568.05L1134.25,1568.05L1134.22,1568.17C1132.81,1573.41 1130.06,1577.54 1125.96,1580.55C1121.86,1583.57 1116.93,1585.1 1111.18,1585.12L1111.05,1585.12C1106.31,1585.12 1102.07,1584.06 1098.33,1581.95C1094.59,1579.83 1091.67,1576.9 1089.58,1573.13C1087.49,1569.37 1086.45,1565.07 1086.45,1560.24C1086.45,1555.41 1087.49,1551.1 1089.58,1547.32C1091.67,1543.53 1094.59,1540.58 1098.33,1538.47C1102.07,1536.35 1106.31,1535.3 1111.05,1535.3L1111.18,1535.3ZM1426.57,1584.77L1414.65,1584.77L1414.65,1545.89L1426.57,1545.89L1426.57,1584.77ZM1301.21,1584.77L1289.29,1584.77L1289.29,1568.6L1272.36,1535.85L1285.88,1535.85L1295.35,1556.34L1304.76,1535.85L1318.14,1535.85L1301.21,1568.6L1301.21,1584.77ZM1159.4,1555.64C1157.08,1555.64 1155.15,1556.47 1153.62,1558.12C1152.09,1559.77 1151.32,1562.17 1151.32,1565.33C1151.32,1568.44 1152.08,1570.83 1153.59,1572.51C1155.1,1574.18 1156.99,1575.01 1159.27,1575.01L1159.32,1575.01C1161.57,1575 1163.49,1574.16 1165.08,1572.51C1166.69,1570.83 1167.49,1568.44 1167.49,1565.33C1167.49,1562.22 1166.71,1559.82 1165.15,1558.15C1163.61,1556.49 1161.71,1555.66 1159.46,1555.64L1159.4,1555.64ZM1340.79,1555.64C1338.46,1555.64 1336.54,1556.47 1335,1558.12C1333.47,1559.77 1332.7,1562.17 1332.7,1565.33C1332.7,1568.44 1333.46,1570.83 1334.97,1572.51C1336.48,1574.18 1338.37,1575.01 1340.65,1575.01L1340.7,1575.01C1342.95,1575 1344.88,1574.16 1346.47,1572.51C1348.07,1570.83 1348.87,1568.44 1348.87,1565.33C1348.87,1562.22 1348.09,1559.82 1346.54,1558.15C1344.99,1556.49 1343.09,1555.66 1340.84,1555.64L1340.79,1555.64ZM1385.59,1555.71C1383.22,1555.71 1381.21,1556.56 1379.57,1558.26C1377.92,1559.95 1377.09,1562.29 1377.09,1565.26C1377.09,1568.23 1377.92,1570.59 1379.57,1572.33C1381.21,1574.07 1383.22,1574.94 1385.59,1574.94L1385.65,1574.94C1387.99,1574.93 1389.98,1574.07 1391.62,1572.37C1393.27,1570.65 1394.09,1568.3 1394.09,1565.33C1394.09,1562.36 1393.27,1560.01 1391.62,1558.29C1389.98,1556.59 1387.99,1555.73 1385.65,1555.71L1385.59,1555.71ZM1204.21,1555.71C1201.84,1555.71 1199.83,1556.56 1198.18,1558.26C1196.53,1559.95 1195.71,1562.29 1195.71,1565.26C1195.71,1568.23 1196.53,1570.59 1198.18,1572.33C1199.83,1574.07 1201.84,1574.94 1204.21,1574.94L1204.27,1574.94C1206.61,1574.93 1208.6,1574.07 1210.24,1572.37C1211.89,1570.65 1212.71,1568.3 1212.71,1565.33C1212.71,1562.36 1211.89,1560.01 1210.24,1558.29C1208.6,1556.59 1206.61,1555.73 1204.27,1555.71L1204.21,1555.71ZM1257.73,1561.52C1257.71,1559.5 1257.02,1557.89 1255.63,1556.69C1254.24,1555.48 1252.5,1554.88 1250.41,1554.88C1248.41,1554.88 1246.73,1555.46 1245.36,1556.62C1243.99,1557.78 1243.14,1559.43 1242.81,1561.57L1257.73,1561.57L1257.73,1561.52ZM1420.69,1528.95C1422.71,1528.96 1424.38,1529.58 1425.69,1530.8C1427.02,1532.03 1427.68,1533.58 1427.68,1535.43C1427.68,1537.25 1427.02,1538.77 1425.69,1540C1424.38,1541.22 1422.71,1541.84 1420.69,1541.85L1420.64,1541.85C1418.55,1541.85 1416.85,1541.23 1415.52,1540C1414.2,1538.77 1413.54,1537.25 1413.54,1535.43C1413.54,1533.58 1414.2,1532.03 1415.52,1530.8C1416.85,1529.57 1418.55,1528.95 1420.64,1528.95L1420.69,1528.95ZM1351.9,1368.08C1354.83,1368.09 1357.7,1368.24 1360.52,1368.53C1398.99,1372.52 1428.55,1401.78 1427.66,1444.13C1427.66,1444.39 1427.62,1445.33 1427.61,1445.49C1425.8,1487.81 1394.44,1515.14 1355.79,1516.66C1354.72,1516.7 1353.65,1516.73 1352.57,1516.73L1352.43,1516.73C1329.49,1516.71 1303.95,1507.38 1281.46,1485.37C1280.14,1484.08 1278.78,1482.74 1277.39,1481.37C1277.39,1481.37 1277.38,1481.36 1277.38,1481.35C1273.97,1478 1271.92,1473.29 1272.09,1468.15C1272.39,1458.57 1280.27,1451 1289.79,1451L1289.9,1451C1290.05,1451 1290.2,1451 1290.36,1451.01C1294.83,1451.15 1298.87,1452.94 1301.9,1455.78C1301.9,1455.79 1301.9,1455.79 1301.9,1455.79L1302.46,1456.33C1303.38,1457.23 1305.2,1459.02 1306.25,1460.05C1320.98,1474.47 1337.4,1481.27 1352.38,1481.3L1352.57,1481.3C1353.18,1481.29 1353.79,1481.28 1354.39,1481.26C1374.69,1480.45 1391.26,1466.2 1392.21,1443.97C1392.22,1443.87 1392.23,1443.47 1392.24,1443.39C1392.7,1421.15 1377.07,1405.87 1356.87,1403.77C1355.24,1403.61 1353.58,1403.52 1351.91,1403.51L1351.73,1403.51C1337.58,1403.51 1322,1409.35 1307.48,1421.87C1297.05,1430.85 1288.43,1438.37 1281.33,1444.65C1281.23,1444.8 1281.11,1444.94 1280.96,1445.06C1274.66,1450.58 1269.32,1455.31 1264.8,1459.36C1264.65,1459.5 1244.65,1477.2 1229.78,1490.01C1207.84,1508.91 1184.01,1516.92 1162.51,1516.95L1162.37,1516.95C1159.4,1516.95 1156.48,1516.8 1153.61,1516.5C1115.14,1512.52 1085.58,1483.25 1086.47,1440.9C1086.47,1440.64 1086.51,1439.7 1086.51,1439.54C1088.33,1397.22 1119.69,1369.9 1158.34,1368.37C1159.45,1368.33 1160.58,1368.31 1161.7,1368.31L1161.84,1368.31C1184.74,1368.36 1210.23,1377.69 1232.66,1399.66C1233.98,1400.96 1235.35,1402.3 1236.73,1403.66C1236.74,1403.67 1236.75,1403.68 1236.75,1403.69C1240.16,1407.04 1242.21,1411.74 1242.04,1416.88C1241.74,1426.43 1233.92,1433.98 1224.45,1434.04L1224.34,1434.04C1224.15,1434.04 1223.96,1434.03 1223.77,1434.03C1219.3,1433.88 1215.26,1432.09 1212.23,1429.25C1212.23,1429.25 1212.22,1429.25 1212.22,1429.25L1211.67,1428.7C1210.75,1427.8 1208.93,1426.01 1207.87,1424.98C1193.21,1410.62 1176.86,1403.82 1161.93,1403.74L1161.75,1403.74C1161.07,1403.74 1160.4,1403.75 1159.74,1403.78C1139.44,1404.58 1122.87,1418.83 1121.91,1441.06C1121.91,1441.16 1121.89,1441.56 1121.89,1441.64C1121.43,1463.89 1137.05,1479.17 1157.26,1481.26C1158.95,1481.43 1160.67,1481.52 1162.4,1481.52L1162.59,1481.52C1176.68,1481.47 1192.19,1475.63 1206.65,1463.17C1217.08,1454.18 1225.69,1446.67 1232.8,1440.39C1232.9,1440.24 1233.02,1440.1 1233.16,1439.97C1239.46,1434.46 1244.81,1429.72 1249.33,1425.67C1249.48,1425.54 1269.48,1407.83 1284.35,1395.02C1306.33,1376.09 1330.22,1368.08 1351.76,1368.08L1351.9,1368.08ZM1257.3,1198.54C1262.22,1198.58 1267.1,1200.65 1270.58,1204.65L1361.34,1309.06L1374.78,1289.14C1378.21,1284.06 1383.81,1281.32 1389.51,1281.31L1389.62,1281.31C1393.01,1281.33 1396.43,1282.31 1399.45,1284.35C1407.58,1289.83 1409.72,1300.88 1404.24,1309.01L1377.88,1348.1C1377.25,1349.03 1376.55,1349.88 1375.79,1350.65L1375.41,1351.02C1375.2,1351.22 1374.99,1351.41 1374.78,1351.6C1371.45,1354.49 1367.36,1355.92 1363.27,1355.95L1363.16,1355.95C1358.18,1355.96 1353.23,1353.89 1349.71,1349.85L1257.06,1243.27L1164.42,1349.85C1160.92,1353.87 1156.01,1355.93 1151.07,1355.95L1150.97,1355.95C1146.84,1355.95 1142.7,1354.51 1139.35,1351.6C1139.13,1351.41 1138.92,1351.22 1138.72,1351.02L1138.34,1350.65C1137.58,1349.88 1136.88,1349.03 1136.25,1348.1L1109.89,1309.01C1104.4,1300.88 1106.55,1289.83 1114.68,1284.35C1117.73,1282.29 1121.19,1281.31 1124.61,1281.31L1124.72,1281.31C1130.39,1281.35 1135.94,1284.09 1139.35,1289.14L1152.78,1309.06L1243.55,1204.65C1247.05,1200.62 1251.99,1198.55 1256.95,1198.54L1257.06,1198.54C1257.1,1198.54 1257.14,1198.54 1257.18,1198.54L1257.3,1198.54ZM1257.26,1069.14L1257.06,1069.14C1224.47,1069.14 1198.01,1095.6 1198.01,1128.19C1198.01,1160.78 1224.47,1187.25 1257.06,1187.25L1257.26,1187.25C1289.76,1187.14 1316.12,1160.72 1316.12,1128.19C1316.12,1095.66 1289.76,1069.24 1257.26,1069.14Z" style="fill-rule:nonzero;"/>
    </g>
</svg>
